<?xml version="1.0" encoding="utf-8"?>
<svg version="1.1" id="Ebene_1" xmlns="http://www.w3.org/2000/svg" xmlns:xlink="http://www.w3.org/1999/xlink" x="0px" y="0px"
	 viewBox="0 0 222 36" style="enable-background:new 0 0 222 36;" xml:space="preserve">
<style type="text/css">
	.st0{fill:#ffffff;}
</style>
<g>
	<path class="st0" d="M26.5,30.9v4.9h-3c-1.7,0-3-0.4-3.6-1.1c-0.6-0.6-1.1-1.7-1.1-3.2C17,34.5,14,36,10.2,36c-3,0-5.1-0.6-7-2.1
		c-1.7-1.5-2.5-3.2-2.5-5.5c0-2.5,0.8-4.7,2.8-6.1s4.7-2.1,8.3-2.1h6.6v-1.5c0-1.5-0.4-2.5-1.5-3.4S14.4,14,12.5,14
		c-1.5,0-3,0.4-4,1.1c-1.1,0.6-1.7,1.5-1.9,2.8H1.3c0.4-2.5,1.5-4.7,3.4-5.9c2.1-1.5,4.7-2.1,7.8-2.1c3.4,0,6.1,0.8,8,2.3
		s2.8,4,2.8,7v9.7c0,1.3,0.4,1.9,1.7,1.9L26.5,30.9L26.5,30.9z M18.2,23.9h-6.8c-1.7,0-3,0.4-4,1.1C6.6,25.6,6,26.5,6,28
		c0,1.1,0.4,2.1,1.3,2.8c0.8,0.6,2.1,1.1,3.4,1.1c2.3,0,4-0.6,5.3-1.9s1.9-2.8,1.9-4.9L18.2,23.9L18.2,23.9z"/>
	<path class="st0" d="M24.4,9.7h5.9l5.9,19.9l5.9-19.9h5.1L53,29.6l6.1-19.9h5.3l-8.7,26h-5.9L44.3,18l-5.7,17.6h-5.9L24.4,9.7z"/>
	<g>
		<polygon class="st0" points="96.2,9.7 90.2,29.4 84.5,9.7 79.4,9.7 73.5,29.4 67.6,9.7 67.6,9.7 64.6,18.4 70.1,35.6 76.3,35.6 
			82,18 87.5,35.6 93.2,35.6 101.9,9.7 		"/>
	</g>
	<g>
		<polygon class="st0" points="134.1,9.7 128.2,29.4 122.4,9.7 117.1,9.7 111.4,29.4 105.5,9.7 105.5,9.7 102.5,18.4 108,35.6 
			114.2,35.6 119.7,18 125.2,35.6 130.9,35.6 139.6,9.7 		"/>
	</g>
	<path class="st0" d="M164.6,30.9v4.9h-3c-1.7,0-3-0.4-3.6-1.1c-0.6-0.6-1.1-1.7-1.1-3.2c-1.9,3-4.9,4.4-8.7,4.4c-3,0-5.1-0.6-7-2.1
		c-1.7-1.5-2.5-3.2-2.5-5.7s0.8-4.7,2.8-6.1s4.7-2.1,8.3-2.1h6.6v-1.5c0-1.5-0.4-2.5-1.5-3.4c-1.1-0.8-2.3-1.3-4.2-1.3
		c-1.5,0-3,0.4-4,1.1c-1.1,0.6-1.7,1.5-1.9,2.8h-5.3c0.4-2.5,1.5-4.7,3.4-5.9s4.7-2.1,7.8-2.1c3.4,0,6.1,0.8,8,2.3s2.8,4,2.8,7v10
		c0,1.3,0.4,1.9,1.7,1.9L164.6,30.9L164.6,30.9z M156.3,23.9h-6.8c-1.7,0-3,0.4-4,1.1c-0.8,0.6-1.5,1.5-1.5,3c0,1.1,0.4,2.1,1.3,2.8
		c0.8,0.6,2.1,1.1,3.4,1.1c2.3,0,4-0.6,5.3-1.9s1.9-2.8,1.9-4.9L156.3,23.9L156.3,23.9z"/>
	<path class="st0" d="M181.9,9.7v5.1h-2.3c-2.3,0-4,0.6-5.1,2.3c-1.1,1.5-1.5,3.2-1.5,5.5v13.1h-5.5v-26h4.9l0.6,4
		c0.6-1.3,1.7-2.3,3-3s2.8-1.1,4.9-1.1h1L181.9,9.7L181.9,9.7z"/>
	<path class="st0" d="M209.3,0v35.6h-4.9l-0.6-4c-2.1,2.8-4.9,4.2-8.5,4.2c-2.3,0-4.4-0.4-6.4-1.5c-1.9-1.1-3.2-2.5-4.2-4.7
		s-1.5-4.2-1.5-7c0-2.5,0.4-5.1,1.5-7c1.1-2.1,2.5-3.6,4.2-4.7c1.9-1.1,4-1.7,6.1-1.7c1.9,0,3.6,0.4,5.1,1.1c1.5,0.6,2.5,1.7,3.4,3
		V0.2L209.3,0C209.3,0.2,209.3,0,209.3,0z M201.8,28.8c1.5-1.5,2.1-3.6,2.1-6.1s-0.6-4.7-2.1-6.4c-1.5-1.5-3.2-2.3-5.5-2.3
		s-4.2,0.8-5.5,2.3c-1.5,1.5-2.1,3.6-2.1,6.1s0.6,4.7,2.1,6.1s3.2,2.3,5.5,2.3S200.4,30.5,201.8,28.8z"/>
	<path class="st0" d="M215.2,30.1c0.6-0.6,1.5-1.1,2.5-1.1s1.9,0.4,2.5,1.1c0.6,0.6,1.1,1.5,1.1,2.3c0,1.1-0.4,1.9-1.1,2.3
		c-0.6,0.6-1.5,1.1-2.5,1.1s-1.9-0.4-2.5-1.1c-0.6-0.6-1.1-1.5-1.1-2.3C214.1,31.3,214.6,30.5,215.2,30.1z"/>
</g>
</svg>
